<?xml version="1.0" encoding="utf-8"?>
<!-- Generator: Adobe Illustrator 16.0.0, SVG Export Plug-In . SVG Version: 6.00 Build 0)  -->
<!DOCTYPE svg PUBLIC "-//W3C//DTD SVG 1.1//EN" "http://www.w3.org/Graphics/SVG/1.1/DTD/svg11.dtd">
<svg version="1.1" id="Layer_1" xmlns="http://www.w3.org/2000/svg" xmlns:xlink="http://www.w3.org/1999/xlink" x="0px" y="0px"
	 width="200px" height="42.233px" viewBox="0 0 200 42.233" enable-background="new 0 0 200 42.233" xml:space="preserve">
<defs>
	<filter id="Adobe_OpacityMaskFilter" filterUnits="userSpaceOnUse" x="0" y="0" width="200" height="42.233">
		<feFlood  style="flood-color:white;flood-opacity:1" result="back"/>
		<feBlend  in="SourceGraphic" in2="back" mode="normal"/>
	</filter>
</defs>
<mask maskUnits="userSpaceOnUse" x="0" y="0" width="200" height="42.233" id="SVGID_1_">
	<g filter="url(#Adobe_OpacityMaskFilter)">
		<g>
			<path d="M24.731,26.306c0,1.711-0.629,3.066-1.886,4.067c-1.259,0.999-2.929,1.501-5.015,1.501c-2.506,0-4.427-0.276-5.763-0.828
				v-1.431c1.477,0.625,3.361,0.939,5.651,0.939c1.684,0,3.018-0.386,4.006-1.155c0.984-0.774,1.479-1.785,1.479-3.038
				c0-0.776-0.164-1.418-0.491-1.928c-0.328-0.51-0.86-0.975-1.599-1.396c-0.739-0.42-1.823-0.873-3.253-1.36
				c-2.095-0.72-3.541-1.496-4.342-2.335c-0.798-0.835-1.198-1.951-1.198-3.345c0-1.533,0.601-2.783,1.803-3.752
				c1.201-0.966,2.746-1.45,4.634-1.45c1.926,0,3.736,0.364,5.427,1.094l-0.519,1.234c-1.701-0.71-3.328-1.065-4.88-1.065
				c-1.514,0-2.72,0.35-3.618,1.052c-0.898,0.701-1.347,1.655-1.347,2.861c0,0.757,0.137,1.379,0.415,1.865
				c0.275,0.486,0.726,0.924,1.353,1.311c0.626,0.39,1.702,0.854,3.225,1.396c1.599,0.552,2.801,1.088,3.604,1.605
				c0.804,0.521,1.39,1.11,1.759,1.767C24.546,24.575,24.731,25.371,24.731,26.306z"/>
			<path d="M42.039,16.98c0,1.981-0.673,3.501-2.02,4.558c-1.346,1.057-3.253,1.585-5.722,1.585h-3.169v8.47h-1.43V11.09h5.021
				C39.599,11.09,42.039,13.053,42.039,16.98z M31.127,21.888h2.819c2.31,0,3.979-0.381,5.007-1.144
				c1.028-0.761,1.542-1.998,1.542-3.709c0-1.579-0.486-2.75-1.458-3.512c-0.973-0.762-2.478-1.144-4.517-1.144h-3.394V21.888z"/>
			<path d="M64.365,21.313c0,3.253-0.813,5.827-2.44,7.721c-1.626,1.893-3.87,2.841-6.731,2.841c-2.852,0-5.091-0.948-6.718-2.841
				c-1.626-1.894-2.44-4.476-2.44-7.748c0-3.264,0.821-5.831,2.46-7.706c1.643-1.875,3.883-2.813,6.725-2.813
				c2.861,0,5.101,0.943,6.718,2.826C63.557,15.478,64.365,18.05,64.365,21.313z M47.592,21.313c0,2.935,0.655,5.205,1.964,6.809
				c1.309,1.605,3.188,2.405,5.638,2.405c2.468,0,4.354-0.794,5.66-2.384c1.303-1.589,1.956-3.865,1.956-6.83
				c0-2.954-0.652-5.218-1.956-6.796c-1.306-1.574-3.182-2.362-5.632-2.362c-2.439,0-4.323,0.795-5.644,2.385
				C48.252,16.128,47.592,18.387,47.592,21.313z"/>
			<path d="M86.947,21.313c0,3.253-0.813,5.827-2.44,7.721c-1.627,1.893-3.871,2.841-6.731,2.841c-2.852,0-5.091-0.948-6.718-2.841
				c-1.626-1.894-2.44-4.476-2.44-7.748c0-3.264,0.821-5.831,2.461-7.706c1.642-1.875,3.883-2.813,6.725-2.813
				c2.861,0,5.101,0.943,6.718,2.826C86.137,15.478,86.947,18.05,86.947,21.313z M70.173,21.313c0,2.935,0.655,5.205,1.964,6.809
				c1.309,1.605,3.188,2.405,5.638,2.405c2.468,0,4.354-0.794,5.659-2.384c1.303-1.589,1.956-3.865,1.956-6.83
				c0-2.954-0.653-5.218-1.956-6.796c-1.306-1.574-3.183-2.362-5.632-2.362c-2.44,0-4.322,0.795-5.644,2.385
				C70.834,16.128,70.173,18.387,70.173,21.313z"/>
			<path d="M107.198,31.592h-1.445L93.608,13.39h-0.112c0.112,2.168,0.169,3.805,0.169,4.908v13.295H92.29V11.09h1.431
				l12.133,18.175h0.084c-0.084-1.684-0.128-3.282-0.128-4.797V11.09h1.389V31.592z"/>
			<path d="M142.431,31.592h-4.277V11.09h11.752v3.562h-7.475v5.287h6.956v3.548h-6.956V31.592z"/>
			<path d="M166.358,31.592h-11.81V11.09h11.81v3.562h-7.462v4.502h6.942v3.562h-6.942v5.288h7.462V31.592z"/>
			<path d="M188.277,21.145c0,3.375-0.96,5.961-2.88,7.756c-1.922,1.794-4.695,2.691-8.323,2.691h-5.808V11.09h6.438
				c3.348,0,5.944,0.884,7.796,2.65C187.353,15.507,188.277,17.975,188.277,21.145z M183.763,21.257
				c0-4.404-1.944-6.605-5.835-6.605h-2.314v13.352h1.865C181.667,28.003,183.763,25.754,183.763,21.257z"/>
		</g>
	</g>
</mask>
<g mask="url(#SVGID_1_)">
	<rect fill="#FFFFFF" width="119.902" height="42.233"/>
	<rect x="125.583" fill="#FFFFFF" width="74.417" height="42.233"/>
</g>
</svg>
